<svg id="svg" version="1.1" xmlns="http://www.w3.org/2000/svg" xmlns:xlink="http://www.w3.org/1999/xlink" width="400" height="400" viewBox="0, 0, 400,400"><g id="svgg"><path id="path0" d="M85.886 55.036 C 53.799 62.061,51.875 109.060,83.301 118.155 L 85.547 118.805 85.559 126.493 C 85.565 130.720,85.675 140.451,85.803 148.116 L 86.036 162.053 84.326 162.478 C 54.624 169.872,53.767 213.842,83.164 222.091 L 85.547 222.759 85.550 264.212 C 85.552 289.275,85.708 307.011,85.944 309.071 C 87.225 320.255,92.965 327.907,102.813 331.560 L 105.664 332.617 179.102 332.726 C 245.793 332.826,252.808 332.777,255.469 332.199 C 265.730 329.968,275.972 322.738,281.174 314.053 C 291.467 296.869,282.299 273.528,263.379 268.749 L 261.719 268.329 261.719 259.428 L 261.719 250.526 264.927 250.035 C 271.606 249.012,280.708 245.841,286.990 242.348 L 289.409 241.002 291.138 242.864 C 297.064 249.248,297.372 249.704,297.445 252.185 C 297.538 255.344,298.039 256.136,304.407 263.208 C 307.462 266.600,313.554 273.409,317.945 278.340 C 328.298 289.965,330.751 292.395,333.297 293.548 C 344.045 298.416,355.699 291.355,356.173 279.688 C 356.438 273.163,356.327 272.989,342.570 258.340 C 338.160 253.646,331.502 246.501,327.774 242.463 C 320.835 234.949,319.140 233.594,316.683 233.594 C 315.370 233.594,313.842 232.175,309.154 226.603 L 308.135 225.392 310.059 222.950 C 329.755 197.947,330.450 160.331,311.695 134.413 C 281.751 93.036,220.691 93.814,192.066 135.938 C 189.881 139.153,185.547 147.316,185.547 148.216 C 185.547 148.527,185.376 148.888,185.167 149.017 C 184.922 149.168,184.780 140.305,184.767 124.138 C 184.745 96.608,184.699 95.954,182.423 91.091 C 179.043 83.868,174.143 79.753,165.983 77.289 C 163.178 76.441,162.448 76.409,142.969 76.257 L 122.852 76.101 121.027 72.328 C 114.655 59.149,100.011 51.944,85.886 55.036 M97.428 65.438 C 115.129 70.048,119.827 93.221,105.283 104.182 C 90.985 114.958,70.703 104.752,70.703 86.782 C 70.703 72.996,84.412 62.047,97.428 65.438 M165.820 87.671 C 170.237 89.834,174.258 95.096,174.774 99.387 C 174.879 100.261,175.054 115.962,175.162 134.277 L 175.359 167.578 173.031 167.578 L 170.703 167.578 170.703 133.999 C 170.703 101.332,170.682 100.363,169.919 98.324 C 168.897 95.593,166.814 93.199,164.312 91.879 L 162.305 90.820 143.359 90.709 L 124.414 90.598 124.549 88.449 L 124.683 86.301 144.080 86.412 L 163.477 86.523 165.820 87.671 M160.469 101.250 C 160.826 101.607,160.938 109.550,160.938 134.614 L 160.938 167.509 159.277 167.785 C 154.045 168.655,151.144 172.318,150.858 178.418 L 150.688 182.031 136.170 182.031 L 121.652 182.031 120.356 179.395 C 116.329 171.203,105.901 162.677,99.707 162.513 C 99.330 162.503,99.219 160.331,99.219 152.993 C 99.219 147.765,99.103 137.934,98.961 131.147 L 98.703 118.808 100.955 118.153 C 109.246 115.743,121.094 105.740,121.094 101.151 C 121.094 100.563,159.880 100.661,160.469 101.250 M264.906 116.384 C 320.470 128.235,332.471 203.296,283.358 231.796 C 234.290 260.270,176.016 212.081,193.780 157.720 C 203.432 128.185,234.790 109.961,264.906 116.384 M230.994 132.031 C 223.122 133.667,218.707 142.634,222.239 149.810 C 228.261 162.042,246.163 157.903,246.180 144.274 C 246.190 136.390,238.777 130.414,230.994 132.031 M237.004 139.315 C 239.008 140.811,239.648 142.075,239.648 144.531 C 239.648 150.880,231.385 152.996,228.208 147.461 C 225.072 141.997,232.001 135.580,237.004 139.315 M284.711 152.175 C 280.537 153.460,277.305 157.994,277.105 162.844 L 277.003 165.337 273.789 167.629 C 270.047 170.299,270.508 170.201,267.838 168.891 C 261.663 165.863,255.806 173.631,259.202 180.345 C 263.416 188.676,278.676 184.227,275.404 175.621 C 275.054 174.700,275.206 174.502,277.543 172.834 L 280.059 171.039 281.359 172.031 C 285.833 175.443,292.769 175.060,296.659 171.185 C 305.159 162.719,296.291 148.610,284.711 152.175 M246.385 153.657 C 244.059 155.812,245.484 159.375,248.672 159.375 C 249.599 159.375,250.343 159.068,250.994 158.416 C 253.872 155.539,249.370 150.890,246.385 153.657 M289.866 157.812 C 295.695 159.431,294.771 168.363,288.775 168.358 C 281.679 168.352,281.236 158.590,288.281 157.458 C 288.389 157.440,289.102 157.600,289.866 157.812 M254.474 161.115 C 252.432 163.157,254.202 167.105,256.960 166.657 C 260.191 166.133,261.421 162.478,258.887 160.933 C 257.166 159.884,255.643 159.947,254.474 161.115 M231.790 162.316 C 230.092 164.013,231.480 167.653,233.919 167.895 C 236.789 168.181,238.129 164.632,235.968 162.470 C 234.547 161.049,233.109 160.996,231.790 162.316 M97.445 172.473 C 112.782 176.468,118.138 195.934,106.950 207.019 C 96.856 217.019,79.613 214.141,73.620 201.457 C 66.191 185.735,80.682 168.107,97.445 172.473 M231.939 173.470 C 230.185 175.224,230.782 178.060,233.089 178.937 C 235.657 179.913,238.210 176.032,236.426 173.866 C 235.123 172.284,233.286 172.122,231.939 173.470 M268.963 175.178 C 270.286 176.500,270.334 179.095,269.043 179.441 C 266.130 180.222,264.187 179.243,263.795 176.797 C 263.375 174.179,266.870 173.084,268.963 175.178 M179.689 179.004 C 179.694 186.623,181.740 197.778,184.238 203.809 C 184.630 204.755,161.458 204.489,160.951 203.541 C 160.696 203.064,160.547 198.026,160.547 189.869 L 160.547 176.953 170.117 176.953 L 179.688 176.953 179.689 179.004 M284.240 178.839 C 282.753 180.483,283.891 183.203,286.066 183.203 C 288.215 183.203,289.345 180.822,288.064 178.993 C 287.297 177.899,285.169 177.813,284.240 178.839 M287.877 179.271 C 288.804 181.004,287.914 182.813,286.133 182.813 C 284.344 182.813,283.210 180.228,284.453 178.984 C 285.216 178.221,287.413 178.405,287.877 179.271 M232.341 184.199 C 230.376 185.266,230.519 189.303,232.547 190.017 C 235.976 191.224,238.758 185.840,235.561 184.187 C 234.159 183.462,233.696 183.464,232.341 184.199 M254.386 183.855 C 253.730 184.119,252.734 186.078,252.734 187.104 C 252.734 190.361,257.722 191.329,258.971 188.314 C 260.112 185.558,257.198 182.724,254.386 183.855 M247.070 190.669 C 244.402 192.184,244.773 196.437,247.628 197.064 C 249.770 197.535,251.953 195.787,251.953 193.602 C 251.953 191.461,248.903 189.629,247.070 190.669 M229.297 193.973 C 222.771 196.049,219.013 203.327,220.934 210.171 C 224.061 221.317,239.682 223.062,245.282 212.891 C 251.043 202.426,240.807 190.312,229.297 193.973 M150.858 202.441 C 151.229 210.306,154.930 213.683,163.513 213.989 L 167.846 214.143 168.137 244.474 C 168.594 292.050,168.506 291.100,172.870 295.465 C 176.917 299.512,177.645 299.609,203.764 299.609 L 225.391 299.609 225.391 301.440 C 225.391 305.916,228.120 312.782,231.612 317.090 L 233.591 319.531 170.995 319.527 L 108.398 319.524 106.405 318.596 C 103.931 317.443,101.888 315.436,100.488 312.780 L 99.414 310.742 99.310 266.794 L 99.206 222.846 102.522 221.720 C 111.816 218.564,119.030 211.087,121.877 201.660 L 122.732 198.828 136.710 198.828 L 150.688 198.828 150.858 202.441 M236.734 200.879 C 239.060 202.052,240.357 204.459,240.119 207.158 C 239.480 214.405,228.741 214.891,227.404 207.733 C 226.378 202.241,231.693 198.337,236.734 200.879 M190.110 216.113 C 201.880 235.733,223.043 248.721,246.980 251.014 L 249.234 251.230 249.128 259.848 L 249.023 268.466 246.875 269.009 C 239.036 270.991,232.166 276.760,228.227 284.668 L 226.428 288.281 203.267 288.281 C 181.561 288.281,180.083 288.238,179.738 287.594 C 179.521 287.190,179.251 271.908,179.081 250.485 L 178.793 214.063 183.836 214.063 L 188.880 214.063 190.110 216.113 M323.888 250.288 C 328.045 254.743,334.609 261.693,338.477 265.732 C 347.868 275.541,349.439 278.396,347.341 281.836 C 346.922 282.522,346.901 282.474,347.163 281.445 C 348.218 277.301,347.435 275.672,341.316 269.281 C 334.548 262.210,334.226 261.870,329.943 257.263 C 327.827 254.987,325.911 253.240,325.683 253.381 C 325.436 253.534,325.386 253.449,325.558 253.170 C 325.739 252.878,324.517 251.363,322.298 249.124 C 320.347 247.156,318.750 245.503,318.750 245.451 C 318.750 245.399,318.143 244.694,317.402 243.884 L 316.054 242.413 313.398 244.964 C 311.937 246.366,309.706 248.496,308.440 249.696 L 306.137 251.877 309.858 256.114 C 311.905 258.445,316.281 263.420,319.583 267.170 C 322.885 270.920,327.441 276.106,329.709 278.694 C 336.771 286.751,340.145 288.184,344.405 284.935 C 345.147 284.369,345.834 283.985,345.931 284.082 C 346.028 284.179,345.373 284.768,344.474 285.391 C 342.048 287.073,337.901 287.054,335.608 285.352 C 334.352 284.419,316.608 264.614,307.471 253.945 L 305.665 251.836 310.733 247.012 C 313.520 244.358,315.920 242.188,316.066 242.188 C 316.212 242.188,319.732 245.833,323.888 250.288 M260.574 278.755 C 275.537 283.194,279.991 302.134,268.581 312.807 C 252.230 328.103,227.387 308.439,237.972 288.579 C 242.188 280.669,252.264 276.289,260.574 278.755 " stroke="none" fill="#11395e" fill-rule="evenodd"></path><path id="path1" d="M0.000 200.000 L 0.000 400.000 200.000 400.000 L 400.000 400.000 400.000 200.000 L 400.000 0.000 200.000 0.000 L 0.000 0.000 0.000 200.000 M99.805 55.055 C 109.600 57.416,118.833 65.373,122.132 74.297 L 122.811 76.134 143.144 76.266 C 165.858 76.414,165.359 76.361,171.289 79.281 C 177.860 82.517,182.542 88.546,184.157 95.851 C 184.699 98.303,185.151 117.676,185.154 138.632 L 185.156 148.553 187.334 144.115 C 210.723 96.460,276.040 89.580,309.479 131.250 C 330.487 157.429,330.722 197.775,310.014 223.160 L 308.169 225.422 311.799 229.499 C 315.278 233.406,315.496 233.576,317.023 233.585 C 318.666 233.594,321.754 235.273,322.761 236.705 C 323.349 237.542,337.912 253.342,347.326 263.358 C 356.104 272.696,357.427 275.370,356.300 281.489 C 353.925 294.375,338.545 299.743,329.358 290.892 C 325.681 287.350,298.969 257.295,298.123 255.748 C 297.452 254.522,297.246 253.581,297.314 252.064 L 297.407 250.026 293.457 245.598 L 289.506 241.170 284.264 243.764 C 278.393 246.669,273.474 248.384,267.507 249.606 C 265.290 250.060,263.081 250.513,262.598 250.614 L 261.719 250.796 261.719 259.530 L 261.719 268.264 264.351 268.926 C 280.483 272.978,290.058 293.428,283.466 309.749 C 279.260 320.162,268.810 328.699,255.859 332.302 C 251.980 333.381,109.070 333.400,105.078 332.322 C 94.371 329.431,87.401 321.354,85.951 310.156 C 85.727 308.427,85.562 289.939,85.550 265.039 L 85.528 222.852 81.939 221.704 C 53.630 212.658,55.041 169.782,83.887 162.498 L 85.547 162.079 85.547 140.479 L 85.547 118.878 83.171 118.218 C 62.163 112.377,53.686 85.608,66.959 67.020 C 74.007 57.150,87.739 52.148,99.805 55.055 M120.532 102.686 C 117.188 109.285,109.645 115.449,101.822 117.977 L 99.219 118.818 99.219 140.585 L 99.219 162.352 101.238 162.870 C 108.989 164.856,117.836 172.680,120.980 180.328 L 121.680 182.028 136.185 182.030 L 150.690 182.031 150.855 178.223 C 151.123 172.057,154.103 168.392,159.430 167.677 L 160.938 167.475 160.938 134.742 C 160.938 105.506,160.872 101.943,160.324 101.395 C 159.782 100.854,157.452 100.781,140.604 100.781 L 121.498 100.781 120.532 102.686 M245.576 115.619 C 196.014 121.897,173.430 179.902,205.616 218.253 C 224.885 241.212,259.506 246.663,284.961 230.746 C 322.904 207.021,323.969 150.596,286.941 125.835 C 274.968 117.830,259.088 113.908,245.576 115.619 M239.169 132.983 C 244.702 135.600,247.549 141.823,245.933 147.765 C 243.053 158.356,229.197 160.594,223.052 151.460 C 215.832 140.729,227.432 127.430,239.169 132.983 M293.196 152.494 C 300.015 155.669,302.204 164.238,297.703 170.139 C 293.972 175.031,286.599 176.076,281.778 172.396 L 280.078 171.098 277.556 172.912 C 275.451 174.427,275.096 174.841,275.408 175.423 C 279.116 182.352,266.200 188.411,260.498 182.417 C 254.351 175.956,260.751 165.004,268.351 168.978 C 269.479 169.568,270.490 169.862,270.785 169.685 C 271.062 169.519,272.563 168.428,274.121 167.261 L 276.953 165.140 276.953 163.053 C 276.953 154.707,285.715 149.011,293.196 152.494 M250.751 153.746 C 252.950 155.596,252.136 158.644,249.193 159.579 C 247.392 160.150,244.619 157.509,245.082 155.664 C 245.779 152.889,248.599 151.935,250.751 153.746 M259.405 161.298 C 260.662 162.555,260.777 163.130,260.080 164.659 C 258.544 168.030,253.516 167.082,253.516 163.422 C 253.516 160.232,257.060 158.953,259.405 161.298 M236.076 162.286 C 238.288 164.336,236.936 167.969,233.961 167.969 C 232.266 167.969,231.283 166.818,230.967 164.461 C 230.603 161.748,233.956 160.321,236.076 162.286 M236.212 173.512 C 237.253 174.490,237.353 175.740,236.519 177.352 C 235.384 179.548,233.694 179.848,232.001 178.155 C 228.744 174.898,232.858 170.361,236.212 173.512 M287.287 177.977 C 288.407 178.407,289.099 180.246,288.638 181.569 C 287.547 184.699,283.245 183.581,283.208 180.158 C 283.193 178.705,285.697 177.367,287.287 177.977 M236.197 184.599 C 238.176 186.578,236.457 190.234,233.548 190.234 C 231.743 190.234,230.859 189.172,230.859 187.005 C 230.859 183.955,234.095 182.497,236.197 184.599 M258.233 184.736 C 259.690 186.192,259.760 187.932,258.416 189.276 C 256.361 191.331,252.734 189.964,252.734 187.134 C 252.734 183.773,255.893 182.396,258.233 184.736 M250.751 191.246 C 253.183 193.292,251.546 197.266,248.272 197.266 C 246.237 197.266,245.313 196.177,245.313 193.778 C 245.313 190.492,248.237 189.130,250.751 191.246 M235.940 193.360 C 248.792 195.797,251.108 213.180,239.301 218.585 C 232.614 221.647,224.706 218.765,221.532 212.109 C 216.979 202.560,225.561 191.392,235.940 193.360 M121.754 202.287 C 118.783 211.594,110.157 220.000,101.232 222.288 L 99.206 222.807 99.310 266.579 L 99.414 310.352 100.508 312.579 C 101.927 315.468,104.897 318.159,107.531 318.941 C 109.266 319.457,117.371 319.531,171.591 319.531 L 233.666 319.531 231.935 317.606 C 228.743 314.055,226.198 308.316,225.345 302.744 L 224.869 299.639 201.985 299.526 L 179.102 299.414 176.906 298.385 C 174.053 297.047,171.904 295.074,170.510 292.513 C 168.289 288.432,168.329 289.133,168.084 250.098 L 167.858 214.063 163.827 214.063 C 155.248 214.063,151.196 210.493,150.855 202.637 L 150.690 198.828 136.771 198.837 L 122.852 198.847 121.754 202.287 M179.036 225.879 C 179.176 232.378,179.291 248.801,179.293 262.374 C 179.296 284.286,179.366 287.122,179.911 287.667 C 180.455 288.212,183.134 288.281,203.498 288.281 L 226.472 288.281 227.354 286.107 C 230.690 277.889,238.744 270.904,247.398 268.725 L 249.219 268.267 249.219 259.785 L 249.219 251.303 244.629 250.843 C 222.980 248.670,203.435 236.521,190.852 217.415 L 188.645 214.063 183.714 214.063 L 178.783 214.063 179.036 225.879 " stroke="none" fill="#f1f1f1" fill-rule="evenodd"></path><path id="path2" d="M87.158 65.460 C 70.906 69.831,65.313 90.205,77.087 102.142 C 90.691 115.935,113.934 106.180,113.837 86.719 C 113.766 72.424,100.517 61.867,87.158 65.460 M230.505 139.125 C 226.214 142.070,226.391 147.654,230.846 149.902 C 237.768 153.396,243.247 143.977,237.004 139.315 C 235.362 138.090,232.150 137.996,230.505 139.125 M89.453 172.171 C 89.453 172.333,90.288 172.413,91.309 172.347 C 94.277 172.156,94.533 171.969,91.895 171.920 C 90.552 171.895,89.453 172.008,89.453 172.171 M87.109 172.545 C 85.336 172.859,80.695 175.331,78.809 176.968 C 76.972 178.560,76.409 179.481,77.537 179.048 C 77.858 178.925,78.023 178.667,77.904 178.475 C 77.602 177.986,78.271 178.037,78.775 178.541 C 79.401 179.167,80.643 177.829,80.073 177.142 C 79.755 176.759,79.870 176.479,80.537 176.012 C 81.537 175.311,82.199 175.194,81.836 175.781 C 81.703 175.996,81.799 176.172,82.050 176.172 C 82.300 176.172,82.414 175.934,82.302 175.642 C 82.176 175.314,82.612 174.868,83.446 174.470 C 85.154 173.656,85.381 173.663,84.716 174.512 C 84.241 175.117,84.251 175.139,84.802 174.710 C 85.144 174.444,85.541 174.310,85.684 174.414 C 85.827 174.518,85.757 174.385,85.528 174.118 C 85.211 173.748,85.603 173.480,87.185 172.988 C 89.182 172.366,89.151 172.183,87.109 172.545 M95.996 172.541 C 96.806 172.697,97.064 173.103,96.905 173.974 C 96.871 174.161,97.123 174.207,97.465 174.076 C 97.825 173.938,97.987 174.000,97.849 174.223 C 97.718 174.436,97.367 174.609,97.070 174.609 C 96.329 174.609,95.979 175.274,96.538 175.619 C 96.824 175.796,96.891 175.733,96.717 175.451 C 96.535 175.156,96.775 175.000,97.412 175.000 C 98.042 175.000,98.472 174.725,98.633 174.219 C 98.912 173.339,99.157 173.273,100.000 173.850 C 100.518 174.205,100.516 174.238,99.988 174.137 C 99.403 174.026,99.219 174.229,99.219 174.988 C 99.219 175.441,100.472 175.032,100.858 174.454 C 101.027 174.200,101.224 174.291,101.379 174.693 C 101.530 175.088,101.869 175.249,102.245 175.104 C 102.687 174.935,102.772 175.014,102.543 175.385 C 102.327 175.733,102.374 175.809,102.685 175.617 C 103.278 175.250,105.561 177.654,105.197 178.262 C 105.024 178.551,105.142 178.538,105.527 178.226 C 106.244 177.646,106.666 177.952,106.382 178.847 C 106.222 179.347,106.261 179.374,106.554 178.964 C 106.996 178.345,109.224 180.937,108.816 181.597 C 108.687 181.806,108.787 182.104,109.038 182.260 C 109.311 182.428,109.391 182.374,109.238 182.125 C 109.096 181.895,109.179 181.641,109.422 181.560 C 109.906 181.399,107.540 178.500,105.370 176.595 C 103.139 174.636,97.541 172.161,95.703 172.321 C 95.381 172.349,95.513 172.448,95.996 172.541 M102.344 176.605 C 101.837 176.970,101.844 176.999,102.394 176.825 C 102.744 176.714,103.237 176.830,103.491 177.081 C 103.845 177.432,103.892 177.380,103.692 176.855 C 103.392 176.066,103.155 176.022,102.344 176.605 M80.746 177.344 C 80.859 177.773,81.089 178.125,81.259 178.125 C 81.429 178.125,81.476 177.773,81.363 177.344 C 81.251 176.914,81.020 176.563,80.850 176.563 C 80.681 176.563,80.634 176.914,80.746 177.344 M99.950 177.223 C 99.655 177.587,99.619 177.762,99.869 177.612 C 100.119 177.462,100.395 177.551,100.481 177.810 C 100.603 178.177,100.703 178.177,100.928 177.813 C 101.088 177.555,101.022 177.344,100.781 177.344 C 100.541 177.344,100.453 177.168,100.586 176.953 C 100.979 176.317,100.531 176.508,99.950 177.223 M79.585 177.657 C 79.206 177.732,79.014 177.983,79.157 178.215 C 79.316 178.472,79.234 178.523,78.948 178.346 C 78.590 178.125,78.586 177.925,78.932 177.509 C 79.181 177.208,79.585 177.088,79.829 177.241 C 80.120 177.424,80.035 177.568,79.585 177.657 M74.956 181.546 C 73.410 184.005,72.246 186.746,72.301 187.801 C 72.320 188.173,72.501 187.905,72.703 187.207 C 73.096 185.843,73.827 185.581,74.609 186.523 C 74.877 186.846,75.289 187.109,75.525 187.109 C 75.762 187.109,75.561 186.834,75.080 186.497 C 74.599 186.160,74.306 185.722,74.428 185.525 C 74.550 185.327,74.377 185.270,74.044 185.398 C 73.049 185.779,73.756 183.958,75.000 182.930 C 75.322 182.664,75.450 182.441,75.283 182.434 C 75.116 182.427,75.245 181.910,75.568 181.285 C 75.990 180.469,76.367 180.202,76.901 180.342 C 77.311 180.449,77.772 180.334,77.925 180.086 C 78.369 179.368,77.817 179.134,77.083 179.729 C 76.639 180.089,76.512 180.108,76.706 179.785 C 77.721 178.095,76.102 179.725,74.956 181.546 M108.887 183.071 C 109.155 183.180,109.375 183.781,109.375 184.408 C 109.375 185.350,109.537 185.547,110.313 185.547 C 111.122 185.547,111.316 185.827,111.730 187.598 C 112.263 189.874,113.055 191.600,112.671 189.648 C 111.918 185.818,110.156 181.342,110.156 183.258 C 110.156 183.641,110.052 183.646,109.688 183.281 C 109.430 183.023,109.034 182.826,108.809 182.843 C 108.583 182.860,108.618 182.963,108.887 183.071 M109.991 186.376 C 110.137 186.613,110.014 186.960,109.718 187.147 C 109.311 187.405,109.378 187.489,109.993 187.494 C 110.904 187.501,111.112 186.479,110.266 186.154 C 109.940 186.029,109.831 186.117,109.991 186.376 M71.678 191.027 C 71.477 192.761,71.536 193.557,71.890 193.883 C 72.262 194.227,72.318 194.225,72.121 193.875 C 71.979 193.621,72.025 193.313,72.225 193.189 C 72.535 192.998,72.401 189.093,72.072 188.746 C 72.009 188.679,71.832 189.705,71.678 191.027 M75.000 191.393 C 75.000 191.995,76.471 192.651,76.763 192.179 C 76.900 191.958,76.866 191.803,76.689 191.833 C 75.898 191.971,75.365 191.764,75.586 191.406 C 75.719 191.191,75.641 191.016,75.414 191.016 C 75.186 191.016,75.000 191.185,75.000 191.393 M112.404 192.773 C 112.302 193.311,112.369 193.750,112.554 193.750 C 112.739 193.750,112.891 193.311,112.891 192.773 C 112.891 192.236,112.823 191.797,112.741 191.797 C 112.658 191.797,112.507 192.236,112.404 192.773 M72.656 194.447 C 72.656 195.047,72.846 195.190,73.438 195.035 C 73.867 194.923,74.219 194.646,74.219 194.421 C 74.219 194.195,74.103 194.126,73.962 194.267 C 73.820 194.409,73.469 194.329,73.180 194.089 C 72.771 193.750,72.656 193.828,72.656 194.447 M77.865 194.303 C 77.865 194.584,78.143 194.794,78.483 194.770 C 78.823 194.746,79.053 194.959,78.994 195.244 C 78.935 195.528,79.070 195.648,79.294 195.510 C 79.788 195.204,79.493 194.664,78.559 194.164 C 78.058 193.896,77.865 193.935,77.865 194.303 M112.214 194.629 C 112.289 196.629,112.087 197.233,111.426 196.985 C 110.806 196.753,110.797 196.797,111.328 197.452 C 111.882 198.135,111.860 198.148,110.938 197.694 L 109.961 197.213 110.887 197.961 C 111.703 198.619,111.735 198.738,111.153 198.961 C 110.673 199.146,110.569 199.454,110.772 200.093 C 111.023 200.884,110.985 200.916,110.386 200.419 C 110.020 200.116,109.759 200.029,109.806 200.227 C 109.964 200.902,109.294 201.949,108.846 201.727 C 108.600 201.604,108.720 201.767,109.112 202.087 C 109.793 202.642,109.794 202.718,109.150 203.702 C 108.641 204.478,108.393 204.607,108.149 204.223 C 107.800 203.673,107.636 204.259,107.799 205.469 C 107.862 205.937,107.778 205.957,107.380 205.570 C 106.730 204.937,106.575 203.798,107.095 203.476 C 107.350 203.319,107.363 203.135,107.130 202.991 C 106.288 202.470,105.825 204.666,106.631 205.356 C 107.429 206.039,106.997 207.297,106.145 206.771 C 105.915 206.629,105.855 206.708,106.007 206.954 C 106.155 207.194,105.841 207.672,105.303 208.024 C 104.146 208.783,103.344 208.473,103.878 207.475 C 104.099 207.061,104.102 206.572,103.885 206.229 C 103.554 205.706,103.342 205.996,103.483 206.779 C 103.516 206.963,103.341 207.357,103.095 207.654 C 102.748 208.072,102.788 208.248,103.274 208.435 C 103.619 208.567,103.803 208.836,103.682 209.032 C 103.561 209.228,103.271 209.270,103.038 209.126 C 102.785 208.969,102.726 209.045,102.892 209.315 C 103.046 209.563,103.000 209.766,102.790 209.766 C 102.580 209.766,102.335 209.634,102.245 209.473 C 102.155 209.312,102.142 209.419,102.217 209.711 C 102.303 210.047,102.137 210.160,101.767 210.018 C 101.445 209.895,101.223 209.985,101.274 210.219 C 101.325 210.453,100.609 210.905,99.683 211.222 C 98.756 211.540,98.068 211.871,98.154 211.957 C 98.923 212.725,104.927 209.088,107.527 206.280 C 110.642 202.915,114.268 194.141,112.543 194.141 C 112.352 194.141,112.204 194.360,112.214 194.629 M74.528 196.749 C 74.940 196.914,74.940 197.063,74.528 197.562 C 74.077 198.108,74.115 198.115,74.887 197.635 C 75.720 197.116,75.440 196.456,74.414 196.521 C 74.199 196.535,74.251 196.637,74.528 196.749 M72.453 198.108 C 72.782 199.818,74.296 202.976,74.509 202.396 C 74.616 202.103,74.485 201.727,74.216 201.561 C 73.948 201.395,73.849 201.064,73.996 200.825 C 74.144 200.586,74.068 200.391,73.828 200.391 C 73.588 200.391,73.500 200.215,73.633 200.000 C 73.766 199.785,73.688 199.609,73.461 199.609 C 73.233 199.609,73.047 199.324,73.047 198.976 C 73.047 198.430,73.137 198.417,73.696 198.878 C 74.253 199.338,74.318 199.331,74.152 198.828 C 74.046 198.506,73.709 198.242,73.405 198.242 C 73.101 198.242,72.717 197.979,72.553 197.656 C 72.376 197.310,72.335 197.495,72.453 198.108 M79.267 200.098 C 79.040 200.839,79.032 201.594,79.249 201.728 C 79.399 201.821,79.557 201.470,79.600 200.948 C 79.662 200.207,79.421 199.593,79.267 200.098 M75.065 203.076 C 74.667 203.329,74.942 203.892,76.237 205.470 C 78.504 208.233,80.295 209.611,80.597 208.823 C 80.742 208.446,80.636 208.313,80.296 208.444 C 79.607 208.708,76.436 205.599,76.797 205.015 C 76.986 204.709,77.238 204.796,77.599 205.289 C 77.896 205.696,78.125 205.797,78.125 205.520 C 78.125 205.252,78.299 205.139,78.511 205.271 C 78.733 205.408,78.798 205.251,78.665 204.903 C 78.401 204.216,77.130 204.086,76.746 204.706 C 76.348 205.350,75.305 204.275,75.522 203.445 C 75.736 202.629,75.751 202.642,75.065 203.076 M78.590 206.925 C 78.874 207.268,79.201 207.292,79.729 207.009 C 80.703 206.488,80.672 206.445,79.330 206.445 C 78.474 206.445,78.290 206.564,78.590 206.925 M95.801 207.681 C 95.532 207.789,95.326 208.171,95.343 208.529 C 95.363 208.938,95.447 208.998,95.572 208.689 C 95.681 208.419,95.901 208.280,96.062 208.379 C 96.223 208.478,96.354 208.303,96.354 207.991 C 96.354 207.678,96.340 207.436,96.322 207.453 C 96.304 207.470,96.069 207.572,95.801 207.681 M82.031 209.008 C 82.031 209.686,83.381 209.750,83.956 209.099 C 84.344 208.660,84.362 208.583,84.004 208.890 C 83.365 209.437,82.661 209.546,82.968 209.049 C 83.078 208.870,82.913 208.724,82.600 208.724 C 82.287 208.724,82.031 208.852,82.031 209.008 M80.859 209.552 C 80.859 209.779,82.747 210.784,84.235 211.349 C 85.187 211.711,85.228 211.688,84.726 211.072 C 84.237 210.471,84.262 210.431,84.961 210.692 C 85.588 210.926,85.646 210.887,85.254 210.492 C 84.887 210.122,84.654 210.111,84.318 210.448 C 83.982 210.784,83.496 210.704,82.365 210.127 C 81.537 209.705,80.859 209.446,80.859 209.552 M86.016 211.016 C 84.882 212.149,87.666 212.928,92.500 212.829 L 95.508 212.768 91.602 212.507 C 86.845 212.190,85.705 211.884,86.355 211.100 C 86.914 210.427,86.666 210.365,86.016 211.016 " stroke="none" fill="#834ce6" fill-rule="evenodd"></path><path id="path3" d="M124.549 88.449 L 124.414 90.598 143.359 90.709 L 162.305 90.820 164.312 91.879 C 166.814 93.199,168.897 95.593,169.919 98.324 C 170.682 100.363,170.703 101.332,170.703 133.999 L 170.703 167.578 173.031 167.578 L 175.359 167.578 175.162 134.277 C 175.054 115.962,174.879 100.261,174.774 99.387 C 174.258 95.096,170.237 89.834,165.820 87.671 L 163.477 86.523 144.080 86.412 L 124.683 86.301 124.549 88.449 M286.970 157.824 C 281.005 159.611,282.503 168.353,288.775 168.358 C 294.771 168.363,295.695 159.431,289.866 157.812 C 288.297 157.376,288.464 157.376,286.970 157.824 M88.902 172.323 C 89.099 172.640,88.850 172.693,88.047 172.506 C 87.338 172.341,87.109 172.372,87.434 172.589 C 88.058 173.006,85.716 173.588,85.056 173.180 C 84.830 173.040,84.751 173.098,84.881 173.309 C 85.182 173.795,81.735 175.495,81.164 175.142 C 80.925 174.994,80.850 175.059,80.992 175.289 C 81.252 175.710,80.183 176.368,79.503 176.205 C 79.294 176.155,79.435 176.458,79.815 176.878 C 80.453 177.583,80.457 177.690,79.870 178.277 C 79.313 178.835,78.516 178.833,78.516 178.274 C 78.516 178.167,78.719 178.204,78.967 178.358 C 79.246 178.530,79.312 178.465,79.139 178.185 C 78.972 177.915,79.114 177.734,79.492 177.734 C 79.840 177.734,80.015 177.558,79.882 177.343 C 79.735 177.104,79.286 177.218,78.728 177.636 C 78.226 178.012,77.895 178.452,77.993 178.613 C 78.157 178.883,77.554 179.063,76.855 178.953 C 76.694 178.927,76.606 179.126,76.660 179.395 C 76.714 179.663,76.538 179.839,76.270 179.785 C 76.001 179.731,75.802 179.819,75.828 179.980 C 75.945 180.726,75.749 181.276,75.435 181.082 C 75.244 180.964,75.112 181.174,75.142 181.547 C 75.171 181.923,74.964 182.179,74.678 182.119 C 74.393 182.060,74.274 182.195,74.412 182.419 C 74.550 182.642,74.871 182.721,75.125 182.595 C 75.378 182.468,75.311 182.597,74.976 182.881 C 74.640 183.166,74.246 183.717,74.100 184.107 C 73.953 184.496,73.659 184.707,73.445 184.575 C 73.217 184.434,73.156 184.595,73.297 184.963 C 73.430 185.309,73.788 185.496,74.094 185.378 C 74.400 185.261,74.550 185.327,74.428 185.525 C 74.306 185.722,74.599 186.160,75.080 186.497 C 75.561 186.834,75.762 187.109,75.525 187.109 C 75.289 187.109,74.877 186.846,74.609 186.523 C 74.050 185.850,73.047 185.739,73.047 186.351 C 73.047 186.579,72.896 186.672,72.713 186.558 C 72.529 186.445,72.466 186.812,72.574 187.375 C 72.718 188.126,72.640 188.317,72.280 188.095 C 71.933 187.880,71.857 188.004,72.019 188.525 C 72.369 189.651,72.401 191.515,72.086 192.383 C 71.858 193.009,71.885 193.048,72.223 192.578 C 72.455 192.256,72.647 192.190,72.650 192.433 C 72.654 192.675,72.393 193.092,72.070 193.359 C 71.748 193.627,71.487 194.220,71.490 194.677 C 71.495 195.372,71.565 195.412,71.913 194.922 C 72.228 194.480,72.281 194.695,72.127 195.801 C 72.003 196.695,72.084 197.266,72.336 197.266 C 72.562 197.266,72.655 197.617,72.543 198.047 C 72.414 198.540,72.492 198.734,72.754 198.572 C 73.018 198.409,73.092 198.612,72.957 199.128 C 72.792 199.761,72.887 199.888,73.384 199.702 C 73.943 199.493,73.955 199.548,73.480 200.131 C 73.004 200.715,73.017 200.768,73.582 200.551 C 74.062 200.367,74.165 200.466,73.986 200.933 C 73.845 201.301,73.943 201.563,74.223 201.563 C 74.516 201.563,74.618 201.880,74.486 202.382 C 74.320 203.019,74.423 203.163,74.947 203.026 C 75.482 202.886,75.607 203.081,75.546 203.964 C 75.454 205.290,75.896 205.686,76.566 204.879 C 77.196 204.120,78.369 204.133,78.665 204.903 C 78.798 205.251,78.733 205.408,78.511 205.271 C 78.299 205.139,78.125 205.252,78.125 205.520 C 78.125 205.797,77.896 205.696,77.599 205.289 C 77.251 204.814,76.982 204.715,76.806 205.000 C 76.660 205.237,77.198 206.099,78.003 206.915 C 78.808 207.731,79.426 208.538,79.376 208.708 C 79.326 208.878,79.623 208.838,80.034 208.617 C 80.675 208.274,80.753 208.330,80.576 209.008 C 80.462 209.443,80.523 209.771,80.712 209.736 C 81.510 209.590,82.061 209.793,81.839 210.152 C 81.697 210.381,81.872 210.433,82.270 210.281 C 82.722 210.107,82.849 210.171,82.661 210.476 C 82.472 210.781,82.600 210.845,83.052 210.671 C 83.556 210.478,83.641 210.551,83.395 210.969 C 83.216 211.274,83.455 211.185,83.926 210.771 C 84.607 210.174,84.883 210.118,85.263 210.501 C 85.643 210.883,85.587 210.925,84.995 210.699 C 84.500 210.510,84.335 210.557,84.509 210.838 C 84.653 211.071,84.638 211.335,84.475 211.426 C 84.313 211.517,84.399 211.537,84.668 211.472 C 84.937 211.406,85.156 211.542,85.156 211.774 C 85.156 212.006,85.464 211.861,85.840 211.451 C 86.216 211.041,86.370 210.933,86.183 211.212 C 85.966 211.534,86.010 211.719,86.303 211.719 C 86.557 211.719,86.676 211.863,86.567 212.039 C 86.458 212.215,86.931 212.290,87.618 212.206 C 88.335 212.119,88.676 212.191,88.418 212.375 C 88.171 212.551,89.868 212.695,92.190 212.695 C 94.512 212.695,96.208 212.551,95.960 212.375 C 95.701 212.191,96.049 212.120,96.777 212.209 C 97.476 212.295,98.047 212.201,98.047 212.000 C 98.047 211.799,98.320 211.740,98.653 211.868 C 99.046 212.019,99.162 211.943,98.983 211.653 C 98.794 211.348,98.976 211.276,99.549 211.425 C 100.012 211.547,100.293 211.487,100.173 211.292 C 99.972 210.967,100.865 210.749,101.726 210.913 C 101.924 210.951,101.836 210.679,101.531 210.310 C 101.017 209.687,101.048 209.676,101.953 210.156 C 102.852 210.634,102.887 210.622,102.386 210.015 C 102.087 209.653,101.955 209.243,102.093 209.105 C 102.231 208.967,102.344 209.040,102.344 209.268 C 102.344 209.496,102.632 209.793,102.985 209.928 C 103.545 210.143,103.558 210.090,103.083 209.504 C 102.782 209.134,102.745 208.958,103.000 209.111 C 103.254 209.263,103.561 209.228,103.682 209.032 C 103.803 208.836,103.619 208.567,103.274 208.435 C 102.788 208.248,102.748 208.072,103.095 207.654 C 103.341 207.357,103.516 206.963,103.483 206.779 C 103.342 205.996,103.554 205.706,103.885 206.229 C 104.102 206.572,104.099 207.061,103.878 207.475 C 103.344 208.473,104.146 208.783,105.303 208.024 C 105.886 207.642,106.162 207.199,105.992 206.916 C 105.800 206.595,105.909 206.607,106.336 206.953 C 106.995 207.487,107.495 207.107,107.672 205.938 C 107.783 205.206,108.630 204.273,108.985 204.492 C 109.151 204.595,109.263 204.373,109.233 204.000 C 109.204 203.624,109.411 203.368,109.697 203.428 C 109.982 203.487,110.114 203.373,109.992 203.175 C 109.699 202.701,110.739 200.713,111.094 201.068 C 111.246 201.220,111.242 201.012,111.087 200.608 C 110.892 200.099,110.944 199.958,111.257 200.152 C 111.558 200.337,111.628 200.217,111.465 199.792 C 111.266 199.276,111.149 199.253,110.853 199.674 C 110.563 200.088,110.522 200.074,110.657 199.609 C 110.750 199.287,111.159 199.053,111.565 199.090 C 112.150 199.143,112.060 198.952,111.133 198.177 C 110.116 197.326,110.090 197.261,110.938 197.686 C 111.829 198.132,111.867 198.118,111.378 197.525 C 111.056 197.135,111.009 196.875,111.261 196.875 C 111.491 196.875,111.825 197.134,112.002 197.451 C 112.204 197.812,112.309 197.338,112.282 196.182 C 112.259 195.167,112.430 194.207,112.663 194.049 C 112.946 193.857,112.916 193.760,112.575 193.756 C 112.293 193.753,112.164 193.587,112.287 193.388 C 112.410 193.188,112.584 192.100,112.673 190.969 C 112.761 189.838,112.701 189.129,112.537 189.393 C 112.359 189.681,112.047 189.008,111.756 187.710 C 111.332 185.813,111.155 185.547,110.324 185.547 C 109.530 185.547,109.375 185.355,109.375 184.375 C 109.375 183.730,109.170 183.203,108.919 183.203 C 108.669 183.203,108.576 183.090,108.715 182.952 C 108.853 182.814,109.213 182.906,109.515 183.157 C 109.944 183.513,110.115 183.482,110.294 183.018 C 110.419 182.690,110.342 182.422,110.121 182.422 C 109.900 182.422,109.828 182.246,109.961 182.031 C 110.094 181.816,109.918 181.641,109.570 181.641 C 109.192 181.641,109.050 181.822,109.217 182.092 C 109.391 182.373,109.324 182.436,109.038 182.260 C 108.787 182.104,108.679 181.819,108.799 181.625 C 108.919 181.431,108.726 180.828,108.370 180.284 C 108.014 179.741,107.852 179.297,108.011 179.297 C 108.169 179.297,108.067 179.017,107.783 178.676 C 107.315 178.112,107.216 178.121,106.706 178.773 C 106.255 179.351,106.188 179.365,106.366 178.847 C 106.671 177.956,106.248 177.643,105.527 178.226 C 105.142 178.538,105.024 178.551,105.197 178.262 C 105.578 177.627,103.277 175.253,102.648 175.631 C 102.340 175.816,102.373 175.653,102.734 175.206 C 103.284 174.526,103.266 174.510,102.441 174.950 C 101.559 175.420,101.363 175.222,101.522 174.023 C 101.550 173.809,101.352 173.907,101.080 174.243 C 100.467 175.000,99.219 175.499,99.219 174.988 C 99.219 174.259,99.395 174.024,99.861 174.131 C 100.120 174.191,100.442 174.061,100.577 173.843 C 100.726 173.602,100.559 173.547,100.152 173.704 C 99.700 173.877,99.572 173.813,99.761 173.508 C 99.942 173.215,99.832 173.136,99.449 173.283 C 99.124 173.408,98.751 173.845,98.621 174.255 C 98.472 174.725,98.026 175.000,97.412 175.000 C 96.775 175.000,96.535 175.156,96.717 175.451 C 96.891 175.733,96.824 175.796,96.538 175.619 C 95.979 175.274,96.329 174.609,97.070 174.609 C 97.367 174.609,97.718 174.436,97.849 174.223 C 97.980 174.011,97.844 173.931,97.546 174.045 C 96.894 174.295,96.785 172.993,97.422 172.559 C 97.658 172.398,97.253 172.382,96.521 172.522 C 95.570 172.705,95.270 172.651,95.468 172.330 C 95.722 171.918,92.461 171.991,90.137 172.448 C 89.761 172.523,89.453 172.424,89.453 172.229 C 89.453 172.034,89.267 171.875,89.039 171.875 C 88.812 171.875,88.750 172.076,88.902 172.323 M264.272 174.746 C 262.498 176.043,264.469 179.693,266.938 179.682 C 269.434 179.671,269.922 179.343,269.922 177.671 C 269.922 174.847,266.533 173.092,264.272 174.746 M103.692 176.855 C 103.892 177.380,103.845 177.432,103.491 177.081 C 103.237 176.830,102.744 176.714,102.394 176.825 C 101.844 176.999,101.837 176.970,102.344 176.605 C 103.155 176.022,103.392 176.066,103.692 176.855 M81.363 177.344 C 81.476 177.773,81.429 178.125,81.259 178.125 C 81.089 178.125,80.859 177.773,80.746 177.344 C 80.634 176.914,80.681 176.563,80.850 176.563 C 81.020 176.563,81.251 176.914,81.363 177.344 M100.586 176.953 C 100.453 177.168,100.541 177.344,100.781 177.344 C 101.022 177.344,101.088 177.555,100.928 177.813 C 100.703 178.177,100.603 178.177,100.481 177.810 C 100.395 177.551,100.119 177.462,99.869 177.612 C 99.619 177.762,99.655 177.587,99.950 177.223 C 100.531 176.508,100.979 176.317,100.586 176.953 M160.547 189.869 C 160.547 198.026,160.696 203.064,160.951 203.541 C 161.458 204.489,184.630 204.755,184.238 203.809 C 181.740 197.778,179.694 186.623,179.689 179.004 L 179.688 176.953 170.117 176.953 L 160.547 176.953 160.547 189.869 M284.057 180.050 C 284.017 180.817,284.135 181.678,284.318 181.962 C 284.644 182.466,287.643 183.365,287.343 182.868 C 287.175 182.590,288.116 181.605,288.337 181.827 C 288.414 181.903,288.477 181.382,288.477 180.669 C 288.477 179.955,288.363 179.442,288.225 179.527 C 288.086 179.613,287.869 179.412,287.741 179.081 C 287.200 177.671,284.138 178.476,284.057 180.050 M78.028 179.785 C 77.938 180.054,77.534 180.338,77.129 180.416 C 76.491 180.540,76.463 180.474,76.916 179.928 C 77.535 179.181,78.260 179.088,78.028 179.785 M110.807 186.931 C 110.807 187.249,110.449 187.497,109.993 187.494 C 109.378 187.489,109.311 187.405,109.718 187.147 C 110.014 186.960,110.137 186.613,109.991 186.376 C 109.831 186.117,109.940 186.029,110.266 186.154 C 110.564 186.268,110.807 186.618,110.807 186.931 M75.586 191.406 C 75.365 191.764,75.898 191.971,76.689 191.833 C 76.866 191.803,76.900 191.958,76.763 192.179 C 76.594 192.453,76.275 192.452,75.758 192.175 C 74.946 191.741,74.731 191.016,75.414 191.016 C 75.641 191.016,75.719 191.191,75.586 191.406 M73.962 194.267 C 74.103 194.126,74.219 194.195,74.219 194.421 C 74.219 194.646,73.867 194.923,73.438 195.035 C 72.846 195.190,72.656 195.047,72.656 194.447 C 72.656 193.828,72.771 193.750,73.180 194.089 C 73.469 194.329,73.820 194.409,73.962 194.267 M79.477 194.897 C 79.600 195.096,79.517 195.372,79.294 195.510 C 79.070 195.648,78.935 195.528,78.994 195.244 C 79.053 194.959,78.823 194.746,78.483 194.770 C 78.143 194.794,77.865 194.584,77.865 194.303 C 77.865 193.757,79.040 194.191,79.477 194.897 M75.277 196.797 C 75.613 197.010,75.500 197.253,74.887 197.635 C 74.115 198.115,74.077 198.108,74.528 197.562 C 74.940 197.063,74.940 196.914,74.528 196.749 C 74.251 196.637,74.199 196.535,74.414 196.521 C 74.629 196.508,75.017 196.632,75.277 196.797 M79.600 200.948 C 79.557 201.470,79.399 201.821,79.249 201.728 C 79.032 201.594,79.040 200.839,79.267 200.098 C 79.421 199.593,79.662 200.207,79.600 200.948 M110.079 201.381 C 109.600 202.432,109.184 202.592,108.752 201.893 C 108.589 201.629,108.644 201.547,108.883 201.695 C 109.283 201.943,109.961 200.905,109.818 200.264 C 109.779 200.087,109.920 200.049,110.132 200.180 C 110.381 200.334,110.363 200.758,110.079 201.381 M231.055 200.551 C 228.342 201.757,226.840 204.713,227.404 207.733 C 228.741 214.891,239.480 214.405,240.119 207.158 C 240.550 202.271,235.488 198.581,231.055 200.551 M107.095 203.476 C 106.648 203.752,106.679 204.596,107.163 205.371 C 107.584 206.045,107.211 205.983,106.488 205.260 C 105.823 204.595,106.404 202.542,107.130 202.991 C 107.363 203.135,107.350 203.319,107.095 203.476 M80.469 206.529 C 80.469 206.995,78.919 207.322,78.590 206.925 C 78.290 206.564,78.474 206.445,79.330 206.445 C 79.956 206.445,80.469 206.483,80.469 206.529 M96.354 207.991 C 96.354 208.303,96.223 208.478,96.062 208.379 C 95.901 208.280,95.681 208.419,95.572 208.689 C 95.447 208.998,95.363 208.938,95.343 208.529 C 95.326 208.171,95.532 207.789,95.801 207.681 C 96.069 207.572,96.304 207.470,96.322 207.453 C 96.340 207.436,96.354 207.678,96.354 207.991 M82.968 209.049 C 82.661 209.546,83.365 209.437,84.004 208.890 C 84.362 208.583,84.344 208.660,83.956 209.099 C 83.586 209.518,83.081 209.694,82.687 209.543 C 81.881 209.234,81.827 208.724,82.600 208.724 C 82.913 208.724,83.078 208.870,82.968 209.049 M310.908 246.917 C 308.883 248.874,307.575 250.236,308.001 249.944 C 309.014 249.250,315.106 243.365,314.815 243.362 C 314.691 243.360,312.933 244.960,310.908 246.917 M317.547 244.043 C 317.794 244.526,318.166 244.922,318.373 244.922 C 318.580 244.922,318.769 245.142,318.792 245.410 C 318.815 245.679,319.821 246.777,321.028 247.852 C 323.108 249.704,323.153 249.724,321.906 248.242 C 319.746 245.677,317.059 243.089,317.547 244.043 M323.839 250.586 C 324.155 251.016,324.737 251.665,325.133 252.030 C 325.559 252.422,325.733 252.901,325.559 253.202 C 325.398 253.482,325.414 253.576,325.595 253.411 C 325.777 253.246,326.542 253.686,327.295 254.388 C 328.614 255.617,328.605 255.591,327.067 253.711 C 325.399 251.672,322.764 249.121,323.839 250.586 M307.422 253.650 C 307.422 253.791,307.773 254.258,308.203 254.688 C 308.633 255.117,308.984 255.320,308.984 255.139 C 308.984 254.957,308.633 254.490,308.203 254.102 C 307.773 253.713,307.422 253.510,307.422 253.650 M310.156 256.903 C 310.156 257.402,311.656 258.787,311.915 258.528 C 312.020 258.423,311.668 257.924,311.131 257.420 C 310.595 256.917,310.156 256.684,310.156 256.903 M329.688 256.796 C 329.688 256.907,330.414 257.752,331.302 258.674 L 332.917 260.352 331.664 258.697 C 330.466 257.113,329.688 256.365,329.688 256.796 M313.672 261.133 C 314.176 261.670,314.651 262.109,314.726 262.109 C 314.800 262.109,314.574 261.670,314.222 261.133 C 313.870 260.596,313.396 260.156,313.168 260.156 C 312.941 260.156,313.167 260.596,313.672 261.133 M336.328 264.185 C 336.328 264.252,336.883 264.823,337.560 265.454 C 338.756 266.567,338.765 266.131,337.575 264.746 C 337.066 264.153,336.328 263.821,336.328 264.185 M324.509 273.242 C 324.955 273.887,325.906 274.941,326.623 275.586 L 327.927 276.758 326.952 275.593 C 326.415 274.952,325.464 273.898,324.838 273.249 L 323.700 272.070 324.509 273.242 M345.276 273.369 C 345.513 273.812,345.900 274.294,346.135 274.439 C 346.441 274.629,346.440 274.475,346.131 273.897 C 345.893 273.453,345.507 272.971,345.271 272.826 C 344.965 272.637,344.966 272.791,345.276 273.369 M347.503 278.042 C 347.627 278.662,347.542 279.842,347.315 280.664 C 347.056 281.605,347.046 282.016,347.290 281.773 C 347.885 281.178,348.222 277.498,347.710 277.182 C 347.414 276.999,347.349 277.271,347.503 278.042 M249.609 279.014 C 233.127 284.654,230.439 305.843,245.012 315.262 C 259.693 324.751,278.878 310.364,274.411 293.215 C 271.499 282.034,260.009 275.455,249.609 279.014 M330.279 279.797 C 330.657 280.395,331.063 280.785,331.184 280.665 C 331.304 280.545,330.995 280.056,330.498 279.579 L 329.593 278.711 330.279 279.797 M333.157 283.094 C 334.054 284.399,334.700 284.961,334.981 284.680 C 335.071 284.590,334.503 283.914,333.718 283.176 L 332.292 281.836 333.157 283.094 M344.574 284.788 C 343.221 285.915,343.725 286.044,345.117 284.928 C 345.762 284.411,346.113 283.993,345.898 283.999 C 345.684 284.005,345.087 284.360,344.574 284.788 M340.625 286.328 L 339.258 286.616 340.504 286.667 C 341.190 286.696,341.859 286.543,341.992 286.328 C 342.125 286.113,342.179 285.961,342.113 285.989 C 342.047 286.017,341.377 286.170,340.625 286.328 " stroke="none" fill="#2bc48f" fill-rule="evenodd"></path><path id="path4" d="M250.488 103.803 C 251.509 103.883,253.179 103.883,254.199 103.803 C 255.220 103.722,254.385 103.656,252.344 103.656 C 250.303 103.656,249.468 103.722,250.488 103.803 M69.906 110.254 C 70.863 111.274,71.698 112.109,71.761 112.109 C 72.054 112.109,71.744 111.759,70.020 110.140 L 68.164 108.398 69.906 110.254 M98.994 126.953 C 98.994 131.572,99.051 133.462,99.120 131.152 C 99.189 128.843,99.189 125.063,99.120 122.754 C 99.051 120.444,98.994 122.334,98.994 126.953 M184.942 133.203 C 184.942 141.045,184.994 144.253,185.058 140.332 C 185.122 136.411,185.122 129.995,185.058 126.074 C 184.994 122.153,184.942 125.361,184.942 133.203 M296.077 133.301 C 297.035 134.321,297.870 135.156,297.933 135.156 C 298.226 135.156,297.916 134.806,296.191 133.187 L 294.336 131.445 296.077 133.301 M220.810 144.531 C 220.810 145.498,220.886 145.894,220.979 145.410 C 221.072 144.927,221.072 144.136,220.979 143.652 C 220.886 143.169,220.810 143.564,220.810 144.531 M85.712 154.297 C 85.712 158.701,85.769 160.503,85.838 158.301 C 85.908 156.099,85.908 152.495,85.838 150.293 C 85.769 148.091,85.712 149.893,85.712 154.297 M287.003 174.501 C 287.696 174.587,288.927 174.588,289.737 174.504 C 290.548 174.419,289.980 174.349,288.477 174.347 C 286.973 174.345,286.310 174.414,287.003 174.501 M314.199 177.344 C 314.199 179.170,314.266 179.917,314.349 179.004 C 314.431 178.091,314.431 176.597,314.349 175.684 C 314.266 174.771,314.199 175.518,314.199 177.344 M232.910 193.238 C 233.286 193.336,233.901 193.336,234.277 193.238 C 234.653 193.140,234.346 193.059,233.594 193.059 C 232.842 193.059,232.534 193.140,232.910 193.238 M232.916 219.812 C 233.509 219.901,234.388 219.899,234.869 219.806 C 235.349 219.714,234.863 219.640,233.789 219.643 C 232.715 219.646,232.322 219.722,232.916 219.812 M200.000 229.028 C 200.000 229.096,200.571 229.667,201.270 230.298 L 202.539 231.445 201.392 230.176 C 200.322 228.992,200.000 228.727,200.000 229.028 M179.080 242.188 C 179.080 248.740,179.133 251.421,179.198 248.145 C 179.264 244.868,179.264 239.507,179.198 236.230 C 179.133 232.954,179.080 235.635,179.080 242.188 M250.879 240.131 C 251.899 240.211,253.569 240.211,254.590 240.131 C 255.610 240.050,254.775 239.985,252.734 239.985 C 250.693 239.985,249.858 240.050,250.879 240.131 M168.140 261.133 C 168.140 266.934,168.194 269.361,168.261 266.527 C 168.327 263.693,168.327 258.947,168.261 255.980 C 168.194 253.013,168.140 255.332,168.140 261.133 M356.367 278.906 C 356.367 280.088,356.440 280.571,356.530 279.980 C 356.619 279.390,356.619 278.423,356.530 277.832 C 356.440 277.241,356.367 277.725,356.367 278.906 M168.510 282.031 C 168.510 284.717,168.572 285.815,168.649 284.473 C 168.725 283.130,168.725 280.933,168.649 279.590 C 168.572 278.247,168.510 279.346,168.510 282.031 M225.091 300.781 C 225.091 301.533,225.171 301.841,225.269 301.465 C 225.368 301.089,225.368 300.474,225.269 300.098 C 225.171 299.722,225.091 300.029,225.091 300.781 M144.824 333.105 C 164.429 333.161,196.509 333.161,216.113 333.105 C 235.718 333.049,219.678 333.004,180.469 333.004 C 141.260 333.004,125.220 333.049,144.824 333.105 " stroke="none" fill="#92a2b0" fill-rule="evenodd"></path></g></svg>